<?xml version="1.0" encoding="iso-8859-1"?>
<!-- Generator: Adobe Illustrator 16.0.0, SVG Export Plug-In . SVG Version: 6.00 Build 0)  -->
<!DOCTYPE svg PUBLIC "-//W3C//DTD SVG 1.1//EN" "http://www.w3.org/Graphics/SVG/1.1/DTD/svg11.dtd">
<svg version="1.1" id="Capa_1" xmlns="http://www.w3.org/2000/svg" xmlns:xlink="http://www.w3.org/1999/xlink" x="0px" y="0px"
	 width="492.507px" height="492.507px" viewBox="0 0 492.507 492.507" style="enable-background:new 0 0 492.507 492.507;"
	 xml:space="preserve">
<g style="fill:#e7e7e7; stroke:#444444;">
	<path d="M387.207,3.19v44.77h-16.748H348.94v0.052h-2.15V26.588c0-13.497-10.938-24.44-24.441-24.44
		c-13.494,0-24.429,10.944-24.429,24.44v21.371h-16.931h-10.287V24.438C270.702,10.955,259.769,0,246.262,0
		c-13.504,0-24.44,10.955-24.44,24.438v23.521h-10.692h-20.302v0.052h-2.14V26.588c0-13.497-10.942-24.44-24.443-24.44
		c-13.492,0-24.434,10.944-24.434,24.44v21.371h-18.174h-16.335V3.19H84.063v61.984l0.134,64.427h16.591l0.123,362.905h107.202
		V379.101c0-21.271,17.238-38.507,38.501-38.507c21.274,0,38.512,17.236,38.512,38.507v113.4h106.605V129.602h16.712V65.174V3.19
		H387.207z M291.835,270.679h-90.298v-64.437h90.298V270.679z"/>
</g>
</svg>
