<?xml version="1.0" encoding="iso-8859-1"?>
<!-- Generator: Adobe Illustrator 17.1.0, SVG Export Plug-In . SVG Version: 6.00 Build 0)  -->
<!DOCTYPE svg PUBLIC "-//W3C//DTD SVG 1.1//EN" "http://www.w3.org/Graphics/SVG/1.1/DTD/svg11.dtd">
<svg version="1.1" id="Capa_1" xmlns="http://www.w3.org/2000/svg" xmlns:xlink="http://www.w3.org/1999/xlink" x="0px" y="0px"
	 viewBox="0 0 299.941 299.941" style="enable-background:new 0 0 299.941 299.941;" xml:space="preserve">
<g style="fill:#d9ab16">
	<path d="M5.621,137.97h69.637c2.326,0,4.669-1.154,5.83-3.167l21.706-37.497c1.193-2.065,1.152-4.767-0.105-6.802L66.655,32.375
		c-1.053-1.695-2.832-2.695-4.76-2.695c-1.998,0-3.809,1.075-4.845,2.868L0.794,129.993c-1.035,1.789-1.06,3.691-0.064,5.418
		C1.725,137.136,3.554,137.97,5.621,137.97z"/>
	<path d="M171.447,105.97h-42.954c-2.323,0-4.666,1.387-5.83,3.4l-21.476,37.214c-1.164,2.015-1.164,4.73-0.001,6.743l21.479,37.243
		c1.164,2.01,3.506,3.399,5.827,3.399h42.954c2.321,0,4.663-1.385,5.83-3.4l21.476-37.214c1.164-2.015,1.164-4.73,0.001-6.743
		l-21.478-37.24C176.113,107.361,173.771,105.97,171.447,105.97z"/>
	<path d="M100.778,199.042l-19.686-33.898c-1.161-2.017-3.505-3.173-5.833-3.173H5.621c-2.066,0-3.895,0.832-4.891,2.558
		c-0.995,1.725-0.973,3.724,0.061,5.511l54.125,93.908c1.036,1.788,2.721,2.831,4.721,2.831v-0.012c2,0,3.829-1.019,4.883-2.718
		l36.094-58.156C101.868,203.86,101.97,201.105,100.778,199.042z"/>
	<path d="M123.212,79.686c1.192,1.924,3.514,3.285,5.776,3.285h42.8c2.263,0,4.584-1.361,5.777-3.286l37.384-60.369
		c1.108-1.783,1.184-3.831,0.201-5.596c-0.981-1.766-2.821-2.749-4.921-2.749H90.547c-2.098,0-3.938,0.964-4.92,2.728
		c-0.982,1.764-0.909,3.871,0.196,5.656L123.212,79.686z"/>
	<path d="M197.549,98.103l21.306,36.706c1.164,2.009,3.506,3.161,5.827,3.161h69.638c2.067,0,3.897-0.833,4.892-2.56
		c0.995-1.727,0.971-3.725-0.061-5.508l-55.855-96.694c-1.033-1.795-2.846-2.842-4.847-2.842c-1.93,0-3.709,1.026-4.763,2.725
		l-36.029,58.154C196.397,93.276,196.355,96.036,197.549,98.103z"/>
	<path d="M294.32,161.97h-69.638c-2.323,0-4.666,1.154-5.83,3.168l-19.284,33.302c-1.195,2.068-1.152,4.773,0.105,6.802
		l36.033,58.13c1.053,1.695,2.832,2.695,4.759,2.695c2.002,0,3.814-1.078,4.845-2.868l53.843-93.26
		c1.03-1.789,1.051-3.69,0.055-5.413C298.211,162.802,296.384,161.97,294.32,161.97z"/>
	<path d="M181.747,220.255c-1.211-1.953-3.479-3.285-5.775-3.285h-51.167c-2.297,0-4.565,1.331-5.776,3.286l-37.385,60.369
		c-1.108,1.783-1.184,3.831-0.201,5.596c0.981,1.766,2.821,2.749,4.922,2.749h128.048c2.101,0,3.94-0.966,4.922-2.731
		c0.982-1.766,0.907-3.875-0.198-5.653L181.747,220.255z"/>
</g>
</svg>
